<?xml version="1.0" encoding="UTF-8" standalone="no"?>
<svg
   version="1.1"
   width="45"
   height="45"
   id="svg7"
   sodipodi:docname="Editing.svg"
   xml:space="preserve"
   inkscape:version="1.3 (0e150ed6c4, 2023-07-21)"
   inkscape:export-filename="ArrowFill.svg"
   inkscape:export-xdpi="960"
   inkscape:export-ydpi="960"
   xmlns:inkscape="http://www.inkscape.org/namespaces/inkscape"
   xmlns:sodipodi="http://sodipodi.sourceforge.net/DTD/sodipodi-0.dtd"
   xmlns="http://www.w3.org/2000/svg"
   xmlns:svg="http://www.w3.org/2000/svg"><defs
     id="defs7" /><sodipodi:namedview
     id="namedview7"
     pagecolor="#505050"
     bordercolor="#eeeeee"
     borderopacity="1"
     inkscape:showpageshadow="0"
     inkscape:pageopacity="0"
     inkscape:pagecheckerboard="0"
     inkscape:deskcolor="#505050"
     showguides="true"
     showgrid="true"
     inkscape:zoom="16"
     inkscape:cx="17.5625"
     inkscape:cy="23.15625"
     inkscape:window-width="1920"
     inkscape:window-height="1001"
     inkscape:window-x="-9"
     inkscape:window-y="-9"
     inkscape:window-maximized="1"
     inkscape:current-layer="layer1"><inkscape:grid
       id="grid15"
       units="px"
       originx="0"
       originy="0"
       spacingx="0.5"
       spacingy="0.5"
       empcolor="#0099e5"
       empopacity="0.30196078"
       color="#0099e5"
       opacity="0.14901961"
       empspacing="5"
       dotted="false"
       gridanglex="30"
       gridanglez="30"
       visible="true" /></sodipodi:namedview><g
     style="display:none;opacity:0.523;fill:#ffffff;fill-opacity:1;fill-rule:evenodd;stroke:#000000;stroke-width:1.5;stroke-linecap:round;stroke-linejoin:round;stroke-miterlimit:4;stroke-dasharray:none;stroke-opacity:1"
     transform="translate(0,0.3)"
     id="g7"><path
       d="M 9,39 H 36 V 36 H 9 Z"
       style="stroke:#000000;stroke-linecap:butt;stroke-opacity:1"
       id="path1" /><path
       d="m 12,36 v -4 h 21 v 4 z"
       style="stroke:#000000;stroke-linecap:butt;stroke-opacity:1"
       id="path2" /><path
       d="M 11,14 V 9 h 4 v 2 h 5 V 9 h 5 v 2 h 5 V 9 h 4 v 5"
       style="stroke:#000000;stroke-linecap:butt;stroke-opacity:1"
       id="path3" /><path
       d="m 34,14 -3,3 H 14 l -3,-3"
       id="path4"
       style="stroke:#000000;stroke-opacity:1" /><path
       d="M 31,17 V 29.5 H 14 V 17"
       style="stroke:#000000;stroke-linecap:butt;stroke-linejoin:miter;stroke-opacity:1"
       id="path5" /><path
       d="m 31,29.5 1.5,2.5 h -20 L 14,29.5"
       id="path6"
       style="stroke:#000000;stroke-opacity:1" /><path
       d="M 11,14 H 34"
       style="fill:none;stroke:#000000;stroke-linejoin:miter;stroke-opacity:1"
       id="path7" /></g><g
     style="display:none;opacity:0.5;fill:#ffffff;stroke:#000000;stroke-width:1.5;stroke-linejoin:round"
     id="g8"
     transform="translate(0,-1.45)"><path
       d="m 9,26 c 8.5,-1.5 21,-1.5 27,0 L 38.5,13.5 31,25 30.7,10.9 25.5,24.5 22.5,10 19.5,24.5 14.3,10.9 14,25 6.5,13.5 Z"
       id="path1-7"
       style="display:inline" /><path
       d="m 9,26 c 0,2 1.5,2 2.5,4 1,1.5 1,1 0.5,3.5 -1.5,1 -1,2.5 -1,2.5 -1.5,1.5 0,2.5 0,2.5 6.5,1 16.5,1 23,0 0,0 1.5,-1 0,-2.5 0,0 0.5,-1.5 -1,-2.5 -0.5,-2.5 -0.5,-2 0.5,-3.5 1,-2 2.5,-2 2.5,-4 -8.5,-1.5 -18.5,-1.5 -27,0 z"
       id="path2-2"
       style="display:inline" /><path
       d="M 11.5,30 C 15,29 30,29 33.5,30"
       style="display:inline;fill:none"
       id="path3-0" /><path
       d="m 12,33.5 c 6,-1 15,-1 21,0"
       style="display:inline;fill:none"
       id="path4-1" /><circle
       cx="6"
       cy="12"
       r="2"
       id="circle4" /><circle
       cx="14"
       cy="9"
       r="2"
       id="circle5" /><circle
       cx="22.5"
       cy="8"
       r="2"
       id="circle6" /><circle
       cx="31"
       cy="9"
       r="2"
       id="circle7" /><circle
       cx="39"
       cy="12"
       r="2"
       id="circle8" /></g><g
     inkscape:groupmode="layer"
     id="layer1"
     inkscape:label="arrow"><path
       style="fill:none;fill-opacity:1;stroke:#ffffff;stroke-width:1.5;stroke-dasharray:none;stroke-opacity:1"
       d="M 27.5,17.5 H 5 v 10 H 27.5 V 35 L 40,22.5 27.5,10 Z"
       id="path15"
       inkscape:export-filename="WhiteArrow.svg"
       inkscape:export-xdpi="96"
       inkscape:export-ydpi="96" /></g></svg>
