<?xml version="1.0" encoding="UTF-8" standalone="no"?>
<svg
   version="1.1"
   width="45"
   height="45"
   id="svg7"
   sodipodi:docname="WhiteRook.svg"
   xml:space="preserve"
   inkscape:version="1.3 (0e150ed6c4, 2023-07-21)"
   xmlns:inkscape="http://www.inkscape.org/namespaces/inkscape"
   xmlns:sodipodi="http://sodipodi.sourceforge.net/DTD/sodipodi-0.dtd"
   xmlns="http://www.w3.org/2000/svg"
   xmlns:svg="http://www.w3.org/2000/svg"><defs
     id="defs7" /><sodipodi:namedview
     id="namedview7"
     pagecolor="#505050"
     bordercolor="#eeeeee"
     borderopacity="1"
     inkscape:showpageshadow="0"
     inkscape:pageopacity="0"
     inkscape:pagecheckerboard="0"
     inkscape:deskcolor="#505050"
     showguides="true"
     showgrid="true"
     inkscape:zoom="16"
     inkscape:cx="17.5625"
     inkscape:cy="23.15625"
     inkscape:window-width="1920"
     inkscape:window-height="1001"
     inkscape:window-x="-9"
     inkscape:window-y="-9"
     inkscape:window-maximized="1"
     inkscape:current-layer="svg7"><inkscape:grid
       id="grid15"
       units="px"
       originx="0"
       originy="0"
       spacingx="0.5"
       spacingy="0.5"
       empcolor="#0099e5"
       empopacity="0.30196078"
       color="#0099e5"
       opacity="0.14901961"
       empspacing="5"
       dotted="false"
       gridanglex="30"
       gridanglez="30"
       visible="true" /></sodipodi:namedview><g
     style="opacity:1;fill:#ffffff;fill-opacity:1;fill-rule:evenodd;stroke:#000000;stroke-width:1.5;stroke-linecap:round;stroke-linejoin:round;stroke-miterlimit:4;stroke-dasharray:none;stroke-opacity:1"
     transform="translate(0,0.3)"
     id="g7"><path
       d="M 9,39 L 36,39 L 36,36 L 9,36 L 9,39 z "
       style="stroke-linecap:butt;stroke:#000000;stroke-opacity:1"
       id="path1" /><path
       d="M 12,36 L 12,32 L 33,32 L 33,36 L 12,36 z "
       style="stroke-linecap:butt;stroke:#000000;stroke-opacity:1"
       id="path2" /><path
       d="M 11,14 L 11,9 L 15,9 L 15,11 L 20,11 L 20,9 L 25,9 L 25,11 L 30,11 L 30,9 L 34,9 L 34,14"
       style="stroke-linecap:butt;stroke:#000000;stroke-opacity:1"
       id="path3" /><path
       d="M 34,14 L 31,17 L 14,17 L 11,14"
       id="path4"
       style="stroke:#000000;stroke-opacity:1" /><path
       d="M 31,17 L 31,29.5 L 14,29.5 L 14,17"
       style="stroke-linecap:butt;stroke-linejoin:miter;stroke:#000000;stroke-opacity:1"
       id="path5" /><path
       d="M 31,29.5 L 32.5,32 L 12.5,32 L 14,29.5"
       id="path6"
       style="stroke:#000000;stroke-opacity:1" /><path
       d="M 11,14 L 34,14"
       style="fill:none;stroke:#000000;stroke-linejoin:miter;stroke-opacity:1"
       id="path7" /></g></svg>
