<svg width="205" height="204" xmlns="http://www.w3.org/2000/svg" xmlns:xlink="http://www.w3.org/1999/xlink" xml:space="preserve" overflow="hidden"><defs><clipPath id="clip0"><rect x="679" y="151" width="205" height="204"/></clipPath></defs><g clip-path="url(#clip0)" transform="translate(-679 -151)"><path d="M102 25.5C59.7502 25.5 25.5 59.7502 25.5 102 25.5 144.25 59.7502 178.5 102 178.5 144.25 178.5 178.5 144.25 178.5 102 178.5 59.7502 144.25 25.5 102 25.5ZM102 51C130.166 51 153 73.8335 153 102 153 130.166 130.166 153 102 153 73.8335 153 51 130.166 51 102 51 73.8335 73.8335 51 102 51Z" fill="#F6E192" transform="matrix(1.0049 0 0 1 679 151)"/></g></svg>